Coordinates
version=1
nRows=24
nColumns=34
inDegrees=no

Units are S.I. units (second, meters, Newtons, ...)
If the header above contains a line with 'inDegrees', this indicates whether rotational values are in degrees (yes) or radians (no).

endheader
time	pelvis_tilt	pelvis_list	pelvis_rotation	pelvis_tx	pelvis_ty	pelvis_tz	hip_flexion_r	hip_adduction_r	hip_rotation_r	knee_angle_r	ankle_angle_r	subtalar_angle_r	mtp_angle_r	hip_flexion_l	hip_adduction_l	hip_rotation_l	knee_angle_l	ankle_angle_l	subtalar_angle_l	mtp_angle_l	lumbar_extension	lumbar_bending	lumbar_rotation	arm_flex_r	arm_add_r	arm_rot_r	elbow_flex_r	pro_sup_r	arm_flex_l	arm_add_l	arm_rot_l	elbow_flex_l	pro_sup_l
0.92	0.0413729	0.073053	-0.0823682	0.932004	0.968825	-0.281087	0.474572	-0.123659	0.013078	0.931468	0.0121671	-0.460929	-0.00966668	-0.0211639	0.147372	-0.133413	0.166712	0.23191	-0.0397605	-0.00985408	-0.152522	-0.0749577	-0.0877913	-0.156869	-0.104559	-0.292589	0.575952	2.08684	0.125646	-0.176106	0.00046387	0.749547	1.79254
0.93	0.0419321	0.0689179	-0.0762394	0.942949	0.969227	-0.281719	0.479141	-0.119736	-0.0019942	0.876541	0.0219614	-0.455075	-0.00966313	-0.0397323	0.144171	-0.129093	0.1583	0.237227	-0.029168	-0.00984583	-0.157005	-0.0701414	-0.0928572	-0.163921	-0.103828	-0.299698	0.573702	2.08608	0.142081	-0.178619	0.0112339	0.767984	1.79399
0.94	0.0426118	0.0655234	-0.0699919	0.953896	0.969381	-0.282271	0.481736	-0.116692	-0.0185755	0.81906	0.0322944	-0.445145	-0.00965958	-0.0577631	0.141406	-0.124898	0.151073	0.243048	-0.0190619	-0.00983757	-0.161502	-0.0663369	-0.0977718	-0.170987	-0.102834	-0.30657	0.571991	2.08473	0.158208	-0.181214	0.0210766	0.786544	1.79521
0.95	0.0434174	0.0628006	-0.0636997	0.964861	0.969284	-0.282739	0.482475	-0.114249	-0.036512	0.759618	0.0436198	-0.429584	-0.00965603	-0.0754589	0.139054	-0.120735	0.144756	0.249454	-0.00959543	-0.00982931	-0.165997	-0.0634623	-0.10249	-0.178019	-0.10156	-0.313343	0.570698	2.08297	0.173988	-0.183852	0.0300521	0.805074	1.79627
0.96	0.0443365	0.0606547	-0.0574193	0.975861	0.968938	-0.283117	0.481501	-0.112115	-0.0556039	0.69882	0.0561735	-0.40727	-0.00965248	-0.0929912	0.137058	-0.116537	0.139099	0.256502	-0.000868233	-0.00982105	-0.170456	-0.0614034	-0.106979	-0.184978	-0.100003	-0.320137	0.569724	2.08103	0.189364	-0.186506	0.0382603	0.823462	1.79722
0.97	0.0453485	0.0589764	-0.0511998	0.986909	0.968347	-0.283401	0.478983	-0.109998	-0.0755716	0.637288	0.0699776	-0.377681	-0.00964892	-0.110485	0.135326	-0.112302	0.133909	0.264222	0.00710524	-0.0098128	-0.174841	-0.0600287	-0.111208	-0.191829	-0.0981777	-0.327028	0.568987	2.07909	0.204265	-0.189163	0.0458235	0.841635	1.79807
0.98	0.046434	0.0576536	-0.0450904	0.998021	0.967521	-0.283588	0.475112	-0.107629	-0.0960311	0.575685	0.0848723	-0.340988	-0.00964537	-0.128015	0.133745	-0.108114	0.129073	0.272627	0.0144176	-0.00980454	-0.179115	-0.0592037	-0.115153	-0.198534	-0.0961148	-0.334039	0.568414	2.0773	0.21861	-0.19182	0.0528673	0.859546	1.79886
0.99	0.0475826	0.0565829	-0.0391428	1.00921	0.966472	-0.283674	0.470103	-0.104785	-0.116486	0.514725	0.100567	-0.298056	-0.00964181	-0.145606	0.132195	-0.104153	0.124564	0.281701	0.0212715	-0.00979629	-0.183252	-0.058804	-0.118792	-0.205044	-0.093861	-0.341136	0.567934	2.07574	0.232311	-0.194485	0.0595016	0.877163	1.79957
1	0.0487967	0.0556773	-0.0334091	1.02048	0.96522	-0.283657	0.464185	-0.101311	-0.136344	0.455188	0.1167	-0.25036	-0.00963826	-0.163242	0.130557	-0.10067	0.120435	0.2914	0.0279627	-0.00978804	-0.187241	-0.0587216	-0.122117	-0.2113	-0.0914765	-0.348238	0.56747	2.07443	0.245275	-0.197168	0.0658055	0.894457	1.80023
1.01	0.0500931	0.0548695	-0.0279369	1.03186	0.963789	-0.283535	0.457589	-0.0971266	-0.15496	0.397916	0.132901	-0.19983	-0.0096347	-0.180882	0.128726	-0.09796	0.1168	0.301645	0.0348445	-0.00977978	-0.191084	-0.0588659	-0.125136	-0.217231	-0.089033	-0.355227	0.566937	2.07336	0.257399	-0.199877	0.071817	0.911398	1.80083
1.02	0.0515022	0.0541108	-0.0227638	1.04334	0.962209	-0.283307	0.450536	-0.0922338	-0.171704	0.343796	0.148845	-0.148637	-0.00963115	-0.198468	0.126615	-0.0963147	0.113813	0.312314	0.0422818	-0.00977153	-0.1948	-0.0591587	-0.127876	-0.222759	-0.0866115	-0.361963	0.566245	2.07245	0.268569	-0.202613	0.0775276	0.927949	1.80141
1.03	0.0530642	0.0533644	-0.0179143	1.05494	0.960514	-0.282977	0.443223	-0.0867073	-0.186041	0.293737	0.164278	-0.0989633	-0.00962759	-0.215938	0.124152	-0.0959805	0.11165	0.323245	0.0505986	-0.00976328	-0.19841	-0.0595246	-0.130378	-0.227805	-0.0843001	-0.368307	0.565306	2.07163	0.278659	-0.205358	0.0828802	0.944062	1.80197
1.04	0.0548226	0.0525948	-0.0133997	1.06668	0.958739	-0.282549	0.435816	-0.0806755	-0.197608	0.24862	0.179027	-0.0527753	-0.00962403	-0.233227	0.121275	-0.0971272	0.110492	0.334238	0.0600318	-0.00975503	-0.201935	-0.0598811	-0.132695	-0.232299	-0.0821909	-0.37413	0.564042	2.0708	0.287526	-0.208071	0.08777	0.959681	1.80255
1.05	0.0568148	0.0517566	-0.00922318	1.07856	0.95692	-0.282031	0.428445	-0.0742931	-0.206277	0.209249	0.19297	-0.0116511	-0.00962047	-0.250268	0.117928	-0.099828	0.110513	0.345059	0.070694	-0.00974677	-0.20538	-0.0601277	-0.134877	-0.236185	-0.0803765	-0.379334	0.562388	2.06989	0.295019	-0.210682	0.0920484	0.974734	1.80313
1.06	0.0590607	0.0507856	-0.00538716	1.0906	0.955089	-0.281431	0.421215	-0.0677068	-0.212167	0.176298	0.205976	0.0233163	-0.00961691	-0.266984	0.114045	-0.104057	0.111875	0.355448	0.0825527	-0.00973852	-0.208728	-0.0601376	-0.136962	-0.239426	-0.0789459	-0.383853	0.560303	2.06884	0.300983	-0.213091	0.0955293	0.989131	1.80373
1.07	0.0615538	0.0495932	-0.00190087	1.10282	0.953276	-0.280762	0.414211	-0.0610212	-0.215614	0.150254	0.217825	0.0515216	-0.00961335	-0.283277	0.10955	-0.109695	0.114732	0.365126	0.0954257	-0.00973027	-0.211928	-0.0597531	-0.138958	-0.242004	-0.0779804	-0.387665	0.557762	2.06762	0.305266	-0.215166	0.0979984	1.00276	1.80432
1.08	0.0642544	0.0480623	0.00121299	1.11524	0.951505	-0.280033	0.407516	-0.054271	-0.217089	0.131363	0.228139	0.0727611	-0.00960979	-0.299019	0.104346	-0.116552	0.119228	0.373795	0.108988	-0.00972202	-0.21489	-0.0587875	-0.140846	-0.243918	-0.0775485	-0.390778	0.554761	2.06621	0.307737	-0.216756	0.0992272	1.01546	1.8049
1.09	0.0670884	0.0460489	0.00391491	1.12785	0.949795	-0.279255	0.401214	-0.0474058	-0.217093	0.119605	0.236332	0.0871047	-0.00960622	-0.314046	0.0983172	-0.124384	0.125513	0.38114	0.122797	-0.00971377	-0.217492	-0.0570339	-0.142569	-0.245182	-0.0777016	-0.393232	0.551308	2.06463	0.308292	-0.217695	0.0989922	1.02705	1.80549
1.1	0.0699523	0.0433895	0.00614905	1.14069	0.948153	-0.278431	0.395391	-0.0402953	-0.216063	0.114679	0.241636	0.09477	-0.00960266	-0.328153	0.0913324	-0.13293	0.133749	0.386822	0.136336	-0.00970552	-0.219585	-0.054281	-0.144043	-0.245823	-0.0784688	-0.395083	0.547434	2.06291	0.306864	-0.217824	0.0970995	1.03732	1.80611
1.11	0.072742	0.0399035	0.00784965	1.15376	0.946617	-0.277554	0.390141	-0.032756	-0.214307	0.116037	0.243205	0.0960412	-0.0095991	-0.341092	0.0832612	-0.14194	0.14413	0.390472	0.149055	-0.00969727	-0.221006	-0.0503425	-0.145163	-0.245877	-0.0798541	-0.396399	0.543185	2.0611	0.303434	-0.217004	0.0934122	1.04602	1.80685
1.12	0.0753357	0.0354477	0.00894752	1.16705	0.945202	-0.276617	0.385551	-0.0245878	-0.211997	0.122945	0.240281	0.0912592	-0.00959553	-0.352584	0.0739846	-0.1512	0.156897	0.391678	0.160419	-0.00968903	-0.221604	-0.0450718	-0.145812	-0.245397	-0.0818329	-0.39725	0.538635	2.05922	0.298023	-0.215137	0.087878	1.05291	1.80779
1.13	0.0776201	0.0299307	0.00938059	1.18057	0.943924	-0.275613	0.381701	-0.0156286	-0.209197	0.134576	0.232414	0.0808765	-0.00959197	-0.36232	0.0634183	-0.160539	0.172354	0.389966	0.169934	-0.00968078	-0.221257	-0.0383959	-0.145883	-0.244445	-0.0843508	-0.397704	0.533889	2.05731	0.290703	-0.212182	0.0805494	1.05774	1.80903
1.14	0.079502	0.0233386	0.00910435	1.1943	0.942797	-0.274533	0.378655	-0.00580122	-0.205933	0.150098	0.219656	0.0655433	-0.0095884	-0.369963	0.0515302	-0.16983	0.190869	0.384785	0.177163	-0.00967254	-0.219886	-0.0303375	-0.145281	-0.243098	-0.0873251	-0.397832	0.529086	2.05543	0.281584	-0.208158	0.0715918	1.06033	1.81065
1.15	0.0809155	0.0157492	0.00810072	1.20823	0.941839	-0.273369	0.376445	0.0048556	-0.202245	0.168748	0.202685	0.0461739	-0.00958484	-0.375153	0.0383502	-0.178968	0.212875	0.375505	0.181729	-0.00966429	-0.217469	-0.0210239	-0.14394	-0.241441	-0.0906472	-0.397702	0.5244	2.05363	0.270818	-0.20315	0.0612731	1.06053	1.81271
